<?xml version="1.0" encoding="utf-8"?>
<!-- Generator: Adobe Illustrator 24.1.1, SVG Export Plug-In . SVG Version: 6.00 Build 0)  -->
<svg version="1.1" id="Layer_1" xmlns="http://www.w3.org/2000/svg" xmlns:xlink="http://www.w3.org/1999/xlink" x="0px" y="0px"
	 viewBox="0 0 512 512" style="enable-background:new 0 0 512 512;" xml:space="preserve">
<g>
	<path d="M204.8,409.6V98.5l256-42.7l0,302.6c0,14.1,11.5,25.6,25.6,25.6c14.1,0,25.6-11.5,25.6-25.6l0-332.8
		c0-7.5-3.3-14.7-9.1-19.5c-5.7-4.8-13.4-7-20.8-5.7L175,51.5c-12.3,2.1-21.4,12.7-21.4,25.3v332.8c0,14.1,11.5,25.6,25.6,25.6
		S204.8,423.7,204.8,409.6L204.8,409.6z"/>
	<path d="M102.4,332.8v25.6c28.3,0.1,51.1,22.9,51.2,51.2c-0.1,28.3-22.9,51.1-51.2,51.2c-28.3-0.1-51.1-22.9-51.2-51.2
		c0.1-28.3,22.9-51.1,51.2-51.2V332.8v-25.6C45.8,307.2,0,353,0,409.6C0,466.2,45.8,512,102.4,512c56.6,0,102.4-45.8,102.4-102.4
		c0-56.6-45.8-102.4-102.4-102.4V332.8z"/>
	<path d="M409.6,281.6v25.6c28.3,0.1,51.1,22.9,51.2,51.2c-0.1,28.3-22.9,51.1-51.2,51.2c-28.3-0.1-51.1-22.9-51.2-51.2
		c0.1-28.3,22.9-51.1,51.2-51.2V281.6V256c-56.6,0-102.4,45.8-102.4,102.4c0,56.6,45.8,102.4,102.4,102.4
		c56.6,0,102.4-45.8,102.4-102.4c0-56.6-45.8-102.4-102.4-102.4V281.6z"/>
</g>
</svg>
